<?xml version="1.0" encoding="UTF-8" standalone="no"?>
<!-- Created with Inkscape (http://www.inkscape.org/) -->

<svg
   xmlns:dc="http://purl.org/dc/elements/1.1/"
   xmlns:cc="http://creativecommons.org/ns#"
   xmlns:rdf="http://www.w3.org/1999/02/22-rdf-syntax-ns#"
   xmlns:svg="http://www.w3.org/2000/svg"
   xmlns="http://www.w3.org/2000/svg"
   xmlns:sodipodi="http://sodipodi.sourceforge.net/DTD/sodipodi-0.dtd"
   xmlns:inkscape="http://www.inkscape.org/namespaces/inkscape"
   width="114.37395mm"
   height="26.1364mm"
   viewBox="0 0 114.37395 26.1364"
   version="1.1"
   id="svg567"
   inkscape:version="0.92.0 r15299"
   sodipodi:docname="calpers.svg">
  <defs
     id="defs561" />
  <sodipodi:namedview
     id="base"
     pagecolor="#ffffff"
     bordercolor="#666666"
     borderopacity="1.0"
     inkscape:pageopacity="0.0"
     inkscape:pageshadow="2"
     inkscape:zoom="2.1446909"
     inkscape:cx="214.24999"
     inkscape:cy="47.501861"
     inkscape:document-units="mm"
     inkscape:current-layer="layer1"
     showgrid="false"
     fit-margin-top="0"
     fit-margin-left="0"
     fit-margin-right="0"
     fit-margin-bottom="0"
     inkscape:window-width="1280"
     inkscape:window-height="744"
     inkscape:window-x="-4"
     inkscape:window-y="-4"
     inkscape:window-maximized="1" />
  <metadata
     id="metadata564">
    <rdf:RDF>
      <cc:Work
         rdf:about="">
        <dc:format>image/svg+xml</dc:format>
        <dc:type
           rdf:resource="http://purl.org/dc/dcmitype/StillImage" />
        <dc:title></dc:title>
      </cc:Work>
    </rdf:RDF>
  </metadata>
  <g
     inkscape:label="Layer 1"
     inkscape:groupmode="layer"
     id="layer1"
     transform="translate(16.6215,-56.646092)">
    <g
       transform="translate(-22.0101,-195.7535)"
       id="g530"
       style="fill:#00659e;fill-opacity:1">
      <path
         style="fill:#00659e;fill-opacity:1;stroke-width:0.26458332"
         inkscape:connector-curvature="0"
         d="m 52.164222,276.79146 c -0.370417,0.29105 -2.248959,0.97896 -4.60375,0.97896 -4.683125,0 -9.233959,-2.16958 -9.233959,-8.38729 0,-6.53521 5.3975,-8.49312 9.286875,-8.49312 2.487084,0 4.365625,0.60854 5.000625,1.00541 0.185209,0.9525 0.370417,2.64584 0.370417,3.86292 l -0.608542,0.15875 c -0.238125,-1.00542 -0.449791,-4.15396 -4.788958,-4.15396 -4.021667,0 -6.402917,2.54 -6.402917,7.11729 0,4.18042 1.852084,7.96396 6.323542,7.96396 4.365625,0 4.683125,-2.14312 5.423958,-4.07458 l 0.608542,0.15875 c -0.3175,2.27541 -1.375833,3.86291 -1.375833,3.86291 z"
         id="path367" />
      <path
         style="fill:#00659e;fill-opacity:1;stroke-width:0.26458332"
         id="path369"
         d="m 69.917763,276.79146 c -0.899583,-0.10583 -1.11125,-0.10583 -1.11125,-1.79916 v -13.83771 c -1.031875,0 -3.01625,0.21167 -3.783542,0.39687 l 0.07937,0.52917 0.370417,-0.0529 c 0.05292,0 0.211667,-0.0265 0.343958,-0.0265 0.873125,0 0.873125,1.1377 0.873125,3.06916 v 9.92188 c 0,1.69333 -0.211666,1.69333 -1.084791,1.79916 l -0.502709,0.0794 V 277.4 h 5.265209 v -0.52917 z"
         inkscape:connector-curvature="0" />
      <path
         style="fill:#00659e;fill-opacity:1;stroke-width:0.26458332"
         inkscape:connector-curvature="0"
         d="m 83.199846,276.84438 0.873125,-0.0794 c 0.9525,-0.10584 0.9525,-0.21167 0.9525,-3.20146 v -8.51959 c 0,-2.98979 0,-3.09562 -0.9525,-3.20145 l -0.873125,-0.0794 v -0.52917 h 10.556875 c 0.105833,0.52917 0.264583,1.48167 0.264583,2.59292 0,0.55563 -0.05292,0.76729 -0.05292,0.97896 l -0.582084,0.10583 c -0.529166,-2.61937 -0.582083,-2.98979 -4.048125,-2.98979 h -2.037291 v 6.72042 h 2.169583 c 1.905,0 2.354792,-0.0265 2.487083,-1.03188 l 0.132292,-0.82021 h 0.635 v 4.41855 h -0.635 L 91.95755,270.3885 c -0.15875,-1.00542 -0.582083,-1.03188 -2.487083,-1.03188 h -2.169583 v 7.03792 c 0.873125,0.15875 1.799166,0.3175 2.672291,0.3175 3.889375,0 4.1275,-1.48167 4.630209,-3.46604 l 0.608541,0.10583 c -0.07937,1.56104 -0.396875,2.72521 -0.79375,4.07458 H 83.199846 Z"
         id="path373" />
      <path
         style="fill:#00659e;fill-opacity:1;stroke-width:0.26458332"
         inkscape:connector-curvature="0"
         d="m 83.358596,265.62605 c 0,-4.04813 -3.624791,-4.41854 -5.953125,-4.41854 h -6.376458 v 0.52916 l 0.873125,0.0794 c 0.9525,0.10583 0.9525,0.21166 0.9525,3.20146 v 8.51958 c 0,2.98979 0,3.09562 -0.9525,3.20146 l -0.873125,0.0794 v 0.52917 h 6.35 v -0.52917 l -0.873125,-0.0794 c -1.349375,-0.10584 -1.349375,-0.21167 -1.349375,-3.20146 v -3.01625 h 2.196042 c 2.301875,0 6.006041,-1.56104 6.006041,-4.89479 z m -8.228541,-3.38667 c 0.502708,-0.10583 1.005416,-0.18521 1.508125,-0.18521 2.196041,0 4.1275,0.87313 4.1275,3.75709 0,3.65125 -2.751667,4.18041 -3.81,4.18041 h -1.825625 z"
         id="path375" />
      <path
         style="fill:#00659e;fill-opacity:1;stroke-width:0.26458332"
         inkscape:connector-curvature="0"
         d="m 117.06651,276.92376 c 1.37584,-0.7673 2.19604,-2.11667 2.19604,-3.75709 0,-2.93687 -2.01083,-3.96875 -3.94229,-5.05354 l -1.34937,-0.76729 c -1.32292,-0.79375 -2.38125,-1.56104 -2.38125,-3.01625 0,-1.64042 1.24354,-2.67229 2.67229,-2.67229 2.77812,0 3.14854,2.11666 3.41312,3.36021 h 0.60855 c 0,-0.60855 -0.0529,-2.59292 -0.23813,-3.38667 -0.635,-0.39688 -1.85208,-0.79375 -3.38667,-0.79375 -2.59291,0 -5.08,1.24354 -5.08,4.23333 0,1.82563 1.29646,3.36021 2.69875,4.10104 l 1.56105,0.84667 c 1.905,0.84667 3.41312,2.09021 3.41312,3.86292 0,4.1275 -6.53521,3.51896 -8.04333,2.61937 -1.03188,-0.60854 -1.98438,-1.74625 -3.01625,-3.57187 -0.66146,-1.16417 -1.45521,-2.75167 -1.82563,-3.41313 1.34938,-0.635 3.38667,-1.98437 3.38667,-4.25979 0,-3.73062 -3.28083,-4.07458 -5.60917,-4.07458 h -6.376456 v 0.52916 l 0.873125,0.0794 c 0.9525,0.10583 0.9525,0.21167 0.9525,3.20146 v 8.51958 c 0,2.98979 0,3.09563 -0.9525,3.20146 l -0.873125,0.0794 v 0.52917 h 5.900206 v -0.52917 l -0.87312,-0.0794 c -0.926044,-0.10583 -0.926044,-0.21167 -0.926044,-3.20146 v -3.175 h 0.899584 c 0.50271,0 1.11125,0 1.50812,0.3175 0.3175,0.26458 0.87313,1.19063 1.50813,2.40771 0.50271,0.87312 1.05833,2.35479 2.51354,3.59833 1.66688,1.42875 7.54063,2.09021 10.76854,0.26459 z m -15.82208,-7.27605 h -1.402292 v -7.40833 c 0.502712,-0.10583 1.005412,-0.18521 1.508122,-0.18521 1.905,0 3.78354,0.87313 3.78354,3.75709 0.0265,2.75166 -1.82562,3.83645 -3.88937,3.83645 z"
         id="path377" />
      <path
         style="fill:#00659e;fill-opacity:1;stroke-width:0.26458332"
         inkscape:connector-curvature="0"
         d="m 60.392763,271.71146 h 0.343958 v 4.1275 c -0.15875,0.23813 -0.79375,1.00542 -1.852083,1.00542 -1.402292,0 -2.275417,-0.82021 -2.275417,-2.2225 0,-2.30187 2.407709,-2.91042 3.783542,-2.91042 z m -3.783542,2.91042 c 0,1.40229 0.873125,2.2225 2.275417,2.2225 1.084792,0 1.693333,-0.76729 1.852083,-1.00542 v -4.1275 h -0.343958 c -1.375833,0 -3.783542,0.60855 -3.783542,2.91042 z m 7.990417,2.16958 0.02646,0.29105 c -0.3175,0.21166 -0.79375,0.5027 -1.693333,0.5027 -1.11125,-0.0265 -1.534583,-0.47625 -1.931458,-0.92604 -0.79375,0.50271 -1.693334,1.03188 -3.598334,1.03188 -1.799166,0 -3.042708,-1.03188 -3.042708,-2.38125 0,-3.175 4.233333,-4.1275 6.376458,-4.7625 v -0.55563 c 0,-1.61396 -0.449791,-3.01625 -2.275416,-3.01625 -1.957917,0 -2.566459,1.53459 -3.042709,2.46063 H 55.23339 c -0.264583,-0.29104 -0.47625,-0.52917 -0.635,-0.97896 0.740833,-0.97896 2.301875,-2.61938 4.894792,-2.61938 2.778125,0 3.386666,1.48167 3.386666,3.96875 v 3.4925 c 0,1.7198 -0.15875,3.54542 1.349375,3.54542 0.185209,0 0.291042,-0.0265 0.370417,-0.0529 z m -3.862917,-5.08 h -0.343958 c -1.402292,0 -3.783542,0.60855 -3.783542,2.91042 0,1.40229 0.873125,2.2225 2.275417,2.2225 1.084792,0 1.693333,-0.76729 1.852083,-1.00542 z"
         id="path379" />
      <polygon
         transform="matrix(0.26458333,0,0,0.26458333,4.8302638,251.47084)"
         id="polygon383"
         points="104.4,98.6 111.5,95.6 112.4,97.1 "
         style="fill:#00659e;fill-opacity:1" />
      <polygon
         transform="matrix(0.26458333,0,0,0.26458333,4.8302638,251.47084)"
         id="polygon385"
         points="109.8,92.6 96,97.2 108.4,90.2 "
         style="fill:#00659e;fill-opacity:1" />
      <polygon
         transform="matrix(0.26458333,0,0,0.26458333,4.8302638,251.47084)"
         id="polygon387"
         points="104.8,84.2 106.7,87.4 90,94.7 "
         style="fill:#00659e;fill-opacity:1" />
      <polygon
         transform="matrix(0.26458333,0,0,0.26458333,4.8302638,251.47084)"
         id="polygon389"
         points="100.2,76.3 103,81.1 83.8,92.7 "
         style="fill:#00659e;fill-opacity:1" />
      <polygon
         transform="matrix(0.26458333,0,0,0.26458333,4.8302638,251.47084)"
         id="polygon391"
         points="94.5,66.7 98.6,73.6 77.7,91 "
         style="fill:#00659e;fill-opacity:1" />
      <polygon
         transform="matrix(0.26458333,0,0,0.26458333,4.8302638,251.47084)"
         id="polygon393"
         points="87.5,54.7 93.2,64.4 72,89.8 "
         style="fill:#00659e;fill-opacity:1" />
      <polygon
         transform="matrix(0.26458333,0,0,0.26458333,4.8302638,251.47084)"
         id="polygon395"
         points="78.8,40 86.4,52.8 66.7,89.2 "
         style="fill:#00659e;fill-opacity:1" />
      <polygon
         transform="matrix(0.26458333,0,0,0.26458333,4.8302638,251.47084)"
         id="polygon397"
         points="77.6,38 62.5,89.5 66.8,19.6 "
         style="fill:#00659e;fill-opacity:1" />
      <polygon
         transform="matrix(0.26458333,0,0,0.26458333,4.8302638,251.47084)"
         id="polygon399"
         points="51.2,17.7 58.5,5.4 65.7,17.8 59.2,90.2 "
         style="fill:#00659e;fill-opacity:1" />
      <polygon
         transform="matrix(0.26458333,0,0,0.26458333,4.8302638,251.47084)"
         id="polygon401"
         points="41.9,33.6 50.2,19.5 56.2,91.4 "
         style="fill:#00659e;fill-opacity:1" />
      <polygon
         transform="matrix(0.26458333,0,0,0.26458333,4.8302638,251.47084)"
         id="polygon403"
         points="35.9,43.8 40.8,35.4 53.8,92.6 "
         style="fill:#00659e;fill-opacity:1" />
      <polygon
         transform="matrix(0.26458333,0,0,0.26458333,4.8302638,251.47084)"
         id="polygon405"
         points="46.7,98 4,98 25.7,61.2 "
         style="fill:#00659e;fill-opacity:1" />
      <polygon
         transform="matrix(0.26458333,0,0,0.26458333,4.8302638,251.47084)"
         id="polygon407"
         points="49.2,95.9 26.8,59.2 29.9,53.9 "
         style="fill:#00659e;fill-opacity:1" />
      <polygon
         transform="matrix(0.26458333,0,0,0.26458333,4.8302638,251.47084)"
         id="polygon409"
         points="51.5,94.1 31.1,51.9 34.8,45.6 "
         style="fill:#00659e;fill-opacity:1" />
    </g>
  </g>
</svg>
